<svg xmlns="http://www.w3.org/2000/svg" viewBox="0 0 100 100"><circle cx="50" cy="50" r="50" fill="#1a3c34"/><g transform="translate(15,25) scale(0.7)" fill="#c8d8c0"><ellipse cx="50" cy="40" rx="28" ry="22"/><ellipse cx="50" cy="40" rx="24" ry="18" fill="#1a3c34" opacity="0.3"/><circle cx="22" cy="32" r="8"/><circle cx="22" cy="32" r="5" fill="#1a3c34" opacity="0.2"/><path d="M15 55 Q5 65 8 72 Q12 68 20 60Z"/><path d="M85 55 Q95 65 92 72 Q88 68 80 60Z"/><path d="M25 20 Q15 10 12 15 Q16 22 25 25Z"/><path d="M75 20 Q85 10 88 15 Q84 22 75 25Z"/><path d="M40 58 Q50 70 60 58" fill="none" stroke="#c8d8c0" stroke-width="3"/></g></svg>