<svg xmlns="http://www.w3.org/2000/svg" viewBox="0 0 100 100"><circle cx="50" cy="50" r="50" fill="#1a3c34"/><g transform="translate(18,18) scale(0.64)" fill="#c8d8c0"><ellipse cx="50" cy="45" rx="30" ry="25"/><circle cx="28" cy="28" r="18"/><path d="M14 30 Q5 22 8 15 Q15 18 18 28Z"/><path d="M20 42 Q12 60 15 80 L22 80 Q24 62 28 50Z"/><path d="M40 60 Q38 75 40 80 L47 80 Q46 75 45 62Z"/><path d="M55 60 Q53 75 55 80 L62 80 Q61 75 60 62Z"/><path d="M68 50 Q72 65 70 80 L77 80 Q80 65 76 48Z"/><path d="M16 35 Q6 45 10 62 Q14 55 20 42" fill="#c8d8c0"/><ellipse cx="72" cy="40" rx="10" ry="8"/><path d="M70 80 Q50 85 40 80" fill="none" stroke="#c8d8c0" stroke-width="1.5"/><circle cx="24" cy="24" r="2" fill="#1a3c34"/></g></svg>