<svg xmlns="http://www.w3.org/2000/svg" viewBox="0 0 100 100"><circle cx="50" cy="50" r="50" fill="#1a3c34"/><g fill="#c8d8c0"><ellipse cx="50" cy="72" rx="30" ry="8"/><rect x="47" y="35" width="4" height="37" rx="2"/><path d="M49 35 Q35 20 20 28 Q35 30 45 35Z"/><path d="M49 33 Q55 15 72 18 Q58 25 50 33Z"/><path d="M50 30 Q40 12 48 8 Q52 15 52 30Z"/><path d="M49 35 Q62 28 75 35 Q60 33 50 37Z"/><circle cx="30" cy="60" r="1.5" opacity="0.4"/><circle cx="65" cy="55" r="1" opacity="0.3"/><path d="M25 75 Q50 82 75 75" fill="none" stroke="#c8d8c0" stroke-width="0.8" opacity="0.4"/></g></svg>